<?xml version="1.0" encoding="UTF-8"?>
<svg width="370px" height="89px" viewBox="0 0 370 89" version="1.1" xmlns="http://www.w3.org/2000/svg" xmlns:xlink="http://www.w3.org/1999/xlink">
    <!-- Generator: Sketch 64 (93537) - https://sketch.com -->
    <title>Logos</title>
    <desc>Created with Sketch.</desc>
    <g id="Logos" stroke="none" stroke-width="1" fill="none" fill-rule="evenodd">
        <g id="Mobomo-Basic-Logo-CMYK" transform="translate(6.000000, 3.000000)">
            <polygon id="Fill-10" fill="#3E1C16" points="94.5 74 104.73913 60 133 74"></polygon>
            <polygon id="Fill-9" fill="#6E261F" points="150 19 94.5 74 76.5 19"></polygon>
            <g id="Group-15">
                <polyline id="Fill-11" fill="#491A17" points="94.5 74 38.5901905 18.9275971 77.8313253 19.078125"></polyline>
                <polygon id="Fill-13" fill="#952F28" points="77.8313253 19.078125 38.5901905 18.9275971 58.968881 0.343921437"></polygon>
                <polyline id="Fill-14" fill="#BD3B2B" points="38.5901905 18.9275971 0.442904762 18.9275971 58.968881 0.343921437 38.5901905 18.9275971"></polyline>
            </g>
        </g>
        <g id="labs()" transform="translate(173.000000, 11.000000)" fill-rule="nonzero">
            <path d="M15.642,64.96 L15.642,56.27 C11.376,56.27 10.112,54.295 10.112,50.029 L10.112,10.45 L-1.42108547e-13,10.45 L-1.42108547e-13,52.32 C-1.42108547e-13,62.195 4.977,64.96 15.642,64.96 Z M37.444,65.671 C42.026,65.671 44.396,64.17 45.976,61.484 L45.976,64.96 L55.851,64.96 L55.851,39.048 C55.851,27.751 50.084,24.749 39.893,24.749 C31.756,24.749 27.332,26.487 24.409,31.306 L31.519,36.283 C33.178,33.676 35.074,33.123 38.945,33.123 C44.633,33.123 45.976,34.545 45.976,38.969 L45.976,41.26 L38.155,41.26 C29.86,41.26 23.54,44.894 23.54,53.268 C23.54,61.326 29.228,65.671 37.444,65.671 Z M39.182,57.534 C35.706,57.534 33.415,56.112 33.415,53.11 C33.415,50.029 35.232,48.686 39.34,48.686 L45.976,48.686 L45.976,50.187 C45.976,55.559 43.764,57.534 39.182,57.534 Z M85,65.671 C95.428,65.671 100.563,58.324 100.563,47.501 L100.563,42.761 C100.563,30.911 94.48,24.749 85,24.749 C81.603,24.749 78.601,25.618 76.468,27.909 L76.468,10.45 L66.909,10.45 L66.909,64.96 L76.468,64.96 L76.468,62.59 C78.364,64.644 81.129,65.671 85,65.671 Z M83.499,57.139 C78.206,57.139 76.468,52.873 76.468,47.185 L76.468,43.077 C76.468,36.757 78.522,33.281 83.499,33.281 C88.476,33.281 90.53,36.757 90.53,43.077 L90.53,47.185 C90.53,52.873 88.95,57.139 83.499,57.139 Z M124.577,65.671 C134.768,65.671 140.061,61.01 140.061,53.426 C140.061,45.605 135.163,41.892 125.446,40.391 C121.259,39.759 119.126,38.89 119.126,36.52 C119.126,34.229 121.496,33.439 124.103,33.439 C128.369,33.439 130.107,34.545 131.845,36.599 L139.271,31.306 C136.19,26.25 130.818,24.749 124.34,24.749 C114.465,24.749 109.093,29.41 109.093,36.915 C109.093,44.894 115.097,48.37 123.313,49.713 C128.29,50.503 130.028,51.293 130.028,53.742 C130.028,55.796 127.895,56.981 124.419,56.981 C119.521,56.981 117.546,55.717 115.966,53.584 L108.224,59.114 C111.621,63.696 116.519,65.671 124.577,65.671 Z" id="labs" fill="#000000"></path>
            <path d="M164.786,74.24 L167.506,70.72 C162.866,67.2 159.826,64.08 158.386,61.36 C156.946,58.64 156.226,55.0133333 156.226,50.48 L156.226,50.48 L156.226,23.76 C156.226,19.28 156.946,15.68 158.386,12.96 C159.826,10.2933333 162.866,7.14666667 167.506,3.52 L167.506,3.52 L164.786,-1.13686838e-13 C159.452667,3.94666667 155.959333,7.46666667 154.306,10.56 C152.652667,13.6533333 151.826,17.5466667 151.826,22.24 L151.826,22.24 L151.826,52 C151.826,56.6933333 152.652667,60.5866667 154.306,63.68 C155.959333,66.7733333 159.452667,70.2933333 164.786,74.24 L164.786,74.24 Z M178.826,74.24 C184.052667,70.3466667 187.519333,66.8266667 189.226,63.68 C190.932667,60.5333333 191.786,56.64 191.786,52 L191.786,52 L191.786,22.24 C191.786,17.6 190.932667,13.7066667 189.226,10.56 C187.519333,7.41333333 184.052667,3.89333333 178.826,-1.13686838e-13 L178.826,-1.13686838e-13 L176.106,3.52 C180.746,7.14666667 183.786,10.2933333 185.226,12.96 C186.666,15.68 187.386,19.28 187.386,23.76 L187.386,23.76 L187.386,50.48 C187.386,55.0133333 186.666,58.64 185.226,61.36 C183.786,64.08 180.746,67.2 176.106,70.72 L176.106,70.72 L178.826,74.24 Z" id="()" fill="#818181"></path>
        </g>
    </g>
</svg>